<mxfile host="app.diagrams.net" modified="2024-05-14T17:00:59.927Z" agent="Mozilla/5.0 (Macintosh; Intel Mac OS X 10_15_7) AppleWebKit/537.36 (KHTML, like Gecko) Chrome/124.0.0.0 Safari/537.36" etag="KpUiinURjiRXPTWVNtU5" version="24.3.1" type="device">
  <diagram id="C5RBs43oDa-KdzZeNtuy" name="Page-1">
    <mxGraphModel dx="1314" dy="831" grid="1" gridSize="10" guides="1" tooltips="1" connect="1" arrows="1" fold="1" page="1" pageScale="1" pageWidth="827" pageHeight="1169" math="0" shadow="0">
      <root>
        <mxCell id="WIyWlLk6GJQsqaUBKTNV-0" />
        <mxCell id="WIyWlLk6GJQsqaUBKTNV-1" parent="WIyWlLk6GJQsqaUBKTNV-0" />
        <mxCell id="XADFCng0oNNhnRwHCBua-0" value="A" style="swimlane;fontStyle=1;align=center;verticalAlign=top;childLayout=stackLayout;horizontal=1;startSize=26;horizontalStack=0;resizeParent=1;resizeParentMax=0;resizeLast=0;collapsible=1;marginBottom=0;whiteSpace=wrap;html=1;fillColor=#dae8fc;strokeColor=#6c8ebf;" vertex="1" parent="WIyWlLk6GJQsqaUBKTNV-1">
          <mxGeometry x="380" y="20" width="160" height="180" as="geometry" />
        </mxCell>
        <mxCell id="XADFCng0oNNhnRwHCBua-1" value="- a : int&lt;div&gt;- b : int&lt;/div&gt;" style="text;strokeColor=#82b366;fillColor=#d5e8d4;align=left;verticalAlign=top;spacingLeft=4;spacingRight=4;overflow=hidden;rotatable=0;points=[[0,0.5],[1,0.5]];portConstraint=eastwest;whiteSpace=wrap;html=1;" vertex="1" parent="XADFCng0oNNhnRwHCBua-0">
          <mxGeometry y="26" width="160" height="44" as="geometry" />
        </mxCell>
        <mxCell id="XADFCng0oNNhnRwHCBua-2" value="" style="line;strokeWidth=1;fillColor=none;align=left;verticalAlign=middle;spacingTop=-1;spacingLeft=3;spacingRight=3;rotatable=0;labelPosition=right;points=[];portConstraint=eastwest;strokeColor=inherit;" vertex="1" parent="XADFCng0oNNhnRwHCBua-0">
          <mxGeometry y="70" width="160" height="8" as="geometry" />
        </mxCell>
        <mxCell id="XADFCng0oNNhnRwHCBua-3" value="A(a : int ,b : int):&lt;div&gt;getA(): int&lt;/div&gt;&lt;div&gt;setA(a : int): void&lt;/div&gt;&lt;div&gt;getB(): int&lt;/div&gt;&lt;div&gt;setB(b : int): void&lt;/div&gt;&lt;div&gt;info(): void&lt;/div&gt;" style="text;strokeColor=#d79b00;fillColor=#ffe6cc;align=left;verticalAlign=top;spacingLeft=4;spacingRight=4;overflow=hidden;rotatable=0;points=[[0,0.5],[1,0.5]];portConstraint=eastwest;whiteSpace=wrap;html=1;" vertex="1" parent="XADFCng0oNNhnRwHCBua-0">
          <mxGeometry y="78" width="160" height="102" as="geometry" />
        </mxCell>
        <mxCell id="XADFCng0oNNhnRwHCBua-4" value="B" style="swimlane;fontStyle=1;align=center;verticalAlign=top;childLayout=stackLayout;horizontal=1;startSize=26;horizontalStack=0;resizeParent=1;resizeParentMax=0;resizeLast=0;collapsible=1;marginBottom=0;whiteSpace=wrap;html=1;fillColor=#dae8fc;strokeColor=#6c8ebf;" vertex="1" parent="WIyWlLk6GJQsqaUBKTNV-1">
          <mxGeometry x="377" y="260" width="160" height="130" as="geometry" />
        </mxCell>
        <mxCell id="XADFCng0oNNhnRwHCBua-9" value="Extends" style="endArrow=block;endSize=16;endFill=0;html=1;rounded=0;entryX=0.488;entryY=0.98;entryDx=0;entryDy=0;entryPerimeter=0;fillColor=#fff2cc;strokeColor=#d6b656;" edge="1" parent="XADFCng0oNNhnRwHCBua-4" target="XADFCng0oNNhnRwHCBua-3">
          <mxGeometry width="160" relative="1" as="geometry">
            <mxPoint x="83" as="sourcePoint" />
            <mxPoint x="243" as="targetPoint" />
          </mxGeometry>
        </mxCell>
        <mxCell id="XADFCng0oNNhnRwHCBua-5" value="- c : int&amp;nbsp;" style="text;strokeColor=#82b366;fillColor=#d5e8d4;align=left;verticalAlign=top;spacingLeft=4;spacingRight=4;overflow=hidden;rotatable=0;points=[[0,0.5],[1,0.5]];portConstraint=eastwest;whiteSpace=wrap;html=1;" vertex="1" parent="XADFCng0oNNhnRwHCBua-4">
          <mxGeometry y="26" width="160" height="26" as="geometry" />
        </mxCell>
        <mxCell id="XADFCng0oNNhnRwHCBua-6" value="" style="line;strokeWidth=1;fillColor=none;align=left;verticalAlign=middle;spacingTop=-1;spacingLeft=3;spacingRight=3;rotatable=0;labelPosition=right;points=[];portConstraint=eastwest;strokeColor=inherit;" vertex="1" parent="XADFCng0oNNhnRwHCBua-4">
          <mxGeometry y="52" width="160" height="8" as="geometry" />
        </mxCell>
        <mxCell id="XADFCng0oNNhnRwHCBua-7" value="B(a : int , b : int. , c : int):&lt;div&gt;getC(): int&lt;/div&gt;&lt;div&gt;setC(c : int): void&lt;/div&gt;&lt;div&gt;infoB(): void&lt;/div&gt;" style="text;strokeColor=#d79b00;fillColor=#ffe6cc;align=left;verticalAlign=top;spacingLeft=4;spacingRight=4;overflow=hidden;rotatable=0;points=[[0,0.5],[1,0.5]];portConstraint=eastwest;whiteSpace=wrap;html=1;" vertex="1" parent="XADFCng0oNNhnRwHCBua-4">
          <mxGeometry y="60" width="160" height="70" as="geometry" />
        </mxCell>
        <mxCell id="XADFCng0oNNhnRwHCBua-10" value="is a" style="text;html=1;align=center;verticalAlign=middle;whiteSpace=wrap;rounded=0;" vertex="1" parent="WIyWlLk6GJQsqaUBKTNV-1">
          <mxGeometry x="449" y="235" width="60" height="30" as="geometry" />
        </mxCell>
        <mxCell id="XADFCng0oNNhnRwHCBua-11" value="A" style="swimlane;fontStyle=1;align=center;verticalAlign=top;childLayout=stackLayout;horizontal=1;startSize=26;horizontalStack=0;resizeParent=1;resizeParentMax=0;resizeLast=0;collapsible=1;marginBottom=0;whiteSpace=wrap;html=1;" vertex="1" parent="WIyWlLk6GJQsqaUBKTNV-1">
          <mxGeometry x="630" y="30" width="160" height="86" as="geometry" />
        </mxCell>
        <mxCell id="XADFCng0oNNhnRwHCBua-12" value="+ field: type" style="text;strokeColor=none;fillColor=none;align=left;verticalAlign=top;spacingLeft=4;spacingRight=4;overflow=hidden;rotatable=0;points=[[0,0.5],[1,0.5]];portConstraint=eastwest;whiteSpace=wrap;html=1;" vertex="1" parent="XADFCng0oNNhnRwHCBua-11">
          <mxGeometry y="26" width="160" height="26" as="geometry" />
        </mxCell>
        <mxCell id="XADFCng0oNNhnRwHCBua-13" value="" style="line;strokeWidth=1;fillColor=none;align=left;verticalAlign=middle;spacingTop=-1;spacingLeft=3;spacingRight=3;rotatable=0;labelPosition=right;points=[];portConstraint=eastwest;strokeColor=inherit;" vertex="1" parent="XADFCng0oNNhnRwHCBua-11">
          <mxGeometry y="52" width="160" height="8" as="geometry" />
        </mxCell>
        <mxCell id="XADFCng0oNNhnRwHCBua-14" value="+ method(type): type" style="text;strokeColor=none;fillColor=none;align=left;verticalAlign=top;spacingLeft=4;spacingRight=4;overflow=hidden;rotatable=0;points=[[0,0.5],[1,0.5]];portConstraint=eastwest;whiteSpace=wrap;html=1;" vertex="1" parent="XADFCng0oNNhnRwHCBua-11">
          <mxGeometry y="60" width="160" height="26" as="geometry" />
        </mxCell>
        <mxCell id="XADFCng0oNNhnRwHCBua-15" value="B" style="swimlane;fontStyle=1;align=center;verticalAlign=top;childLayout=stackLayout;horizontal=1;startSize=26;horizontalStack=0;resizeParent=1;resizeParentMax=0;resizeLast=0;collapsible=1;marginBottom=0;whiteSpace=wrap;html=1;" vertex="1" parent="WIyWlLk6GJQsqaUBKTNV-1">
          <mxGeometry x="630" y="160" width="160" height="86" as="geometry" />
        </mxCell>
        <mxCell id="XADFCng0oNNhnRwHCBua-16" value="+ field: type" style="text;strokeColor=none;fillColor=none;align=left;verticalAlign=top;spacingLeft=4;spacingRight=4;overflow=hidden;rotatable=0;points=[[0,0.5],[1,0.5]];portConstraint=eastwest;whiteSpace=wrap;html=1;" vertex="1" parent="XADFCng0oNNhnRwHCBua-15">
          <mxGeometry y="26" width="160" height="26" as="geometry" />
        </mxCell>
        <mxCell id="XADFCng0oNNhnRwHCBua-17" value="" style="line;strokeWidth=1;fillColor=none;align=left;verticalAlign=middle;spacingTop=-1;spacingLeft=3;spacingRight=3;rotatable=0;labelPosition=right;points=[];portConstraint=eastwest;strokeColor=inherit;" vertex="1" parent="XADFCng0oNNhnRwHCBua-15">
          <mxGeometry y="52" width="160" height="8" as="geometry" />
        </mxCell>
        <mxCell id="XADFCng0oNNhnRwHCBua-18" value="+ method(type): type" style="text;strokeColor=none;fillColor=none;align=left;verticalAlign=top;spacingLeft=4;spacingRight=4;overflow=hidden;rotatable=0;points=[[0,0.5],[1,0.5]];portConstraint=eastwest;whiteSpace=wrap;html=1;" vertex="1" parent="XADFCng0oNNhnRwHCBua-15">
          <mxGeometry y="60" width="160" height="26" as="geometry" />
        </mxCell>
        <mxCell id="XADFCng0oNNhnRwHCBua-19" value="Extends" style="endArrow=block;endSize=16;endFill=0;html=1;rounded=0;exitX=0.5;exitY=0;exitDx=0;exitDy=0;" edge="1" parent="WIyWlLk6GJQsqaUBKTNV-1" source="XADFCng0oNNhnRwHCBua-15" target="XADFCng0oNNhnRwHCBua-14">
          <mxGeometry width="160" relative="1" as="geometry">
            <mxPoint x="700" y="150" as="sourcePoint" />
            <mxPoint x="860" y="150" as="targetPoint" />
            <mxPoint as="offset" />
          </mxGeometry>
        </mxCell>
        <mxCell id="XADFCng0oNNhnRwHCBua-20" value="A" style="swimlane;fontStyle=1;align=center;verticalAlign=top;childLayout=stackLayout;horizontal=1;startSize=26;horizontalStack=0;resizeParent=1;resizeParentMax=0;resizeLast=0;collapsible=1;marginBottom=0;whiteSpace=wrap;html=1;" vertex="1" parent="WIyWlLk6GJQsqaUBKTNV-1">
          <mxGeometry x="827" y="30" width="160" height="86" as="geometry" />
        </mxCell>
        <mxCell id="XADFCng0oNNhnRwHCBua-21" value="+ field: type" style="text;strokeColor=none;fillColor=none;align=left;verticalAlign=top;spacingLeft=4;spacingRight=4;overflow=hidden;rotatable=0;points=[[0,0.5],[1,0.5]];portConstraint=eastwest;whiteSpace=wrap;html=1;" vertex="1" parent="XADFCng0oNNhnRwHCBua-20">
          <mxGeometry y="26" width="160" height="26" as="geometry" />
        </mxCell>
        <mxCell id="XADFCng0oNNhnRwHCBua-22" value="" style="line;strokeWidth=1;fillColor=none;align=left;verticalAlign=middle;spacingTop=-1;spacingLeft=3;spacingRight=3;rotatable=0;labelPosition=right;points=[];portConstraint=eastwest;strokeColor=inherit;" vertex="1" parent="XADFCng0oNNhnRwHCBua-20">
          <mxGeometry y="52" width="160" height="8" as="geometry" />
        </mxCell>
        <mxCell id="XADFCng0oNNhnRwHCBua-23" value="+ method(type): type" style="text;strokeColor=none;fillColor=none;align=left;verticalAlign=top;spacingLeft=4;spacingRight=4;overflow=hidden;rotatable=0;points=[[0,0.5],[1,0.5]];portConstraint=eastwest;whiteSpace=wrap;html=1;" vertex="1" parent="XADFCng0oNNhnRwHCBua-20">
          <mxGeometry y="60" width="160" height="26" as="geometry" />
        </mxCell>
        <mxCell id="XADFCng0oNNhnRwHCBua-24" value="B" style="swimlane;fontStyle=1;align=center;verticalAlign=top;childLayout=stackLayout;horizontal=1;startSize=26;horizontalStack=0;resizeParent=1;resizeParentMax=0;resizeLast=0;collapsible=1;marginBottom=0;whiteSpace=wrap;html=1;" vertex="1" parent="WIyWlLk6GJQsqaUBKTNV-1">
          <mxGeometry x="827" y="160" width="160" height="86" as="geometry" />
        </mxCell>
        <mxCell id="XADFCng0oNNhnRwHCBua-25" value="+ field: type" style="text;strokeColor=none;fillColor=none;align=left;verticalAlign=top;spacingLeft=4;spacingRight=4;overflow=hidden;rotatable=0;points=[[0,0.5],[1,0.5]];portConstraint=eastwest;whiteSpace=wrap;html=1;" vertex="1" parent="XADFCng0oNNhnRwHCBua-24">
          <mxGeometry y="26" width="160" height="26" as="geometry" />
        </mxCell>
        <mxCell id="XADFCng0oNNhnRwHCBua-26" value="" style="line;strokeWidth=1;fillColor=none;align=left;verticalAlign=middle;spacingTop=-1;spacingLeft=3;spacingRight=3;rotatable=0;labelPosition=right;points=[];portConstraint=eastwest;strokeColor=inherit;" vertex="1" parent="XADFCng0oNNhnRwHCBua-24">
          <mxGeometry y="52" width="160" height="8" as="geometry" />
        </mxCell>
        <mxCell id="XADFCng0oNNhnRwHCBua-27" value="+ method(type): type" style="text;strokeColor=none;fillColor=none;align=left;verticalAlign=top;spacingLeft=4;spacingRight=4;overflow=hidden;rotatable=0;points=[[0,0.5],[1,0.5]];portConstraint=eastwest;whiteSpace=wrap;html=1;" vertex="1" parent="XADFCng0oNNhnRwHCBua-24">
          <mxGeometry y="60" width="160" height="26" as="geometry" />
        </mxCell>
        <mxCell id="XADFCng0oNNhnRwHCBua-28" value="Extends" style="endArrow=block;endSize=16;endFill=0;html=1;rounded=0;exitX=0.5;exitY=0;exitDx=0;exitDy=0;" edge="1" parent="WIyWlLk6GJQsqaUBKTNV-1" source="XADFCng0oNNhnRwHCBua-24" target="XADFCng0oNNhnRwHCBua-23">
          <mxGeometry width="160" relative="1" as="geometry">
            <mxPoint x="897" y="150" as="sourcePoint" />
            <mxPoint x="1057" y="150" as="targetPoint" />
          </mxGeometry>
        </mxCell>
        <mxCell id="XADFCng0oNNhnRwHCBua-29" value="C" style="swimlane;fontStyle=1;align=center;verticalAlign=top;childLayout=stackLayout;horizontal=1;startSize=26;horizontalStack=0;resizeParent=1;resizeParentMax=0;resizeLast=0;collapsible=1;marginBottom=0;whiteSpace=wrap;html=1;" vertex="1" parent="WIyWlLk6GJQsqaUBKTNV-1">
          <mxGeometry x="827" y="290" width="160" height="86" as="geometry" />
        </mxCell>
        <mxCell id="XADFCng0oNNhnRwHCBua-30" value="+ field: type" style="text;strokeColor=none;fillColor=none;align=left;verticalAlign=top;spacingLeft=4;spacingRight=4;overflow=hidden;rotatable=0;points=[[0,0.5],[1,0.5]];portConstraint=eastwest;whiteSpace=wrap;html=1;" vertex="1" parent="XADFCng0oNNhnRwHCBua-29">
          <mxGeometry y="26" width="160" height="26" as="geometry" />
        </mxCell>
        <mxCell id="XADFCng0oNNhnRwHCBua-31" value="" style="line;strokeWidth=1;fillColor=none;align=left;verticalAlign=middle;spacingTop=-1;spacingLeft=3;spacingRight=3;rotatable=0;labelPosition=right;points=[];portConstraint=eastwest;strokeColor=inherit;" vertex="1" parent="XADFCng0oNNhnRwHCBua-29">
          <mxGeometry y="52" width="160" height="8" as="geometry" />
        </mxCell>
        <mxCell id="XADFCng0oNNhnRwHCBua-32" value="+ method(type): type" style="text;strokeColor=none;fillColor=none;align=left;verticalAlign=top;spacingLeft=4;spacingRight=4;overflow=hidden;rotatable=0;points=[[0,0.5],[1,0.5]];portConstraint=eastwest;whiteSpace=wrap;html=1;" vertex="1" parent="XADFCng0oNNhnRwHCBua-29">
          <mxGeometry y="60" width="160" height="26" as="geometry" />
        </mxCell>
        <mxCell id="XADFCng0oNNhnRwHCBua-33" value="Extends" style="endArrow=block;endSize=16;endFill=0;html=1;rounded=0;exitX=0.5;exitY=0;exitDx=0;exitDy=0;entryX=0.494;entryY=0.923;entryDx=0;entryDy=0;entryPerimeter=0;" edge="1" parent="WIyWlLk6GJQsqaUBKTNV-1" source="XADFCng0oNNhnRwHCBua-29" target="XADFCng0oNNhnRwHCBua-27">
          <mxGeometry width="160" relative="1" as="geometry">
            <mxPoint x="900" y="280" as="sourcePoint" />
            <mxPoint x="1060" y="280" as="targetPoint" />
          </mxGeometry>
        </mxCell>
        <mxCell id="XADFCng0oNNhnRwHCBua-34" value="Single Inheritance" style="text;html=1;align=center;verticalAlign=middle;whiteSpace=wrap;rounded=0;" vertex="1" parent="WIyWlLk6GJQsqaUBKTNV-1">
          <mxGeometry x="650" y="265" width="120" height="30" as="geometry" />
        </mxCell>
        <mxCell id="XADFCng0oNNhnRwHCBua-35" value="Multi-Level Inheritance" style="text;html=1;align=center;verticalAlign=middle;whiteSpace=wrap;rounded=0;" vertex="1" parent="WIyWlLk6GJQsqaUBKTNV-1">
          <mxGeometry x="840.5" y="390" width="133" height="30" as="geometry" />
        </mxCell>
        <mxCell id="XADFCng0oNNhnRwHCBua-36" value="A" style="swimlane;fontStyle=1;align=center;verticalAlign=top;childLayout=stackLayout;horizontal=1;startSize=26;horizontalStack=0;resizeParent=1;resizeParentMax=0;resizeLast=0;collapsible=1;marginBottom=0;whiteSpace=wrap;html=1;" vertex="1" parent="WIyWlLk6GJQsqaUBKTNV-1">
          <mxGeometry x="1120" y="30" width="160" height="86" as="geometry" />
        </mxCell>
        <mxCell id="XADFCng0oNNhnRwHCBua-37" value="+ field: type" style="text;strokeColor=none;fillColor=none;align=left;verticalAlign=top;spacingLeft=4;spacingRight=4;overflow=hidden;rotatable=0;points=[[0,0.5],[1,0.5]];portConstraint=eastwest;whiteSpace=wrap;html=1;" vertex="1" parent="XADFCng0oNNhnRwHCBua-36">
          <mxGeometry y="26" width="160" height="26" as="geometry" />
        </mxCell>
        <mxCell id="XADFCng0oNNhnRwHCBua-38" value="" style="line;strokeWidth=1;fillColor=none;align=left;verticalAlign=middle;spacingTop=-1;spacingLeft=3;spacingRight=3;rotatable=0;labelPosition=right;points=[];portConstraint=eastwest;strokeColor=inherit;" vertex="1" parent="XADFCng0oNNhnRwHCBua-36">
          <mxGeometry y="52" width="160" height="8" as="geometry" />
        </mxCell>
        <mxCell id="XADFCng0oNNhnRwHCBua-39" value="+ method(type): type" style="text;strokeColor=none;fillColor=none;align=left;verticalAlign=top;spacingLeft=4;spacingRight=4;overflow=hidden;rotatable=0;points=[[0,0.5],[1,0.5]];portConstraint=eastwest;whiteSpace=wrap;html=1;" vertex="1" parent="XADFCng0oNNhnRwHCBua-36">
          <mxGeometry y="60" width="160" height="26" as="geometry" />
        </mxCell>
        <mxCell id="XADFCng0oNNhnRwHCBua-40" value="B" style="swimlane;fontStyle=1;align=center;verticalAlign=top;childLayout=stackLayout;horizontal=1;startSize=26;horizontalStack=0;resizeParent=1;resizeParentMax=0;resizeLast=0;collapsible=1;marginBottom=0;whiteSpace=wrap;html=1;" vertex="1" parent="WIyWlLk6GJQsqaUBKTNV-1">
          <mxGeometry x="1030" y="160" width="160" height="86" as="geometry" />
        </mxCell>
        <mxCell id="XADFCng0oNNhnRwHCBua-49" value="Extends" style="endArrow=block;endSize=16;endFill=0;html=1;rounded=0;entryX=0.525;entryY=1.154;entryDx=0;entryDy=0;entryPerimeter=0;" edge="1" parent="XADFCng0oNNhnRwHCBua-40" target="XADFCng0oNNhnRwHCBua-39">
          <mxGeometry width="160" relative="1" as="geometry">
            <mxPoint x="80" as="sourcePoint" />
            <mxPoint x="240" as="targetPoint" />
          </mxGeometry>
        </mxCell>
        <mxCell id="XADFCng0oNNhnRwHCBua-41" value="+ field: type" style="text;strokeColor=none;fillColor=none;align=left;verticalAlign=top;spacingLeft=4;spacingRight=4;overflow=hidden;rotatable=0;points=[[0,0.5],[1,0.5]];portConstraint=eastwest;whiteSpace=wrap;html=1;" vertex="1" parent="XADFCng0oNNhnRwHCBua-40">
          <mxGeometry y="26" width="160" height="26" as="geometry" />
        </mxCell>
        <mxCell id="XADFCng0oNNhnRwHCBua-42" value="" style="line;strokeWidth=1;fillColor=none;align=left;verticalAlign=middle;spacingTop=-1;spacingLeft=3;spacingRight=3;rotatable=0;labelPosition=right;points=[];portConstraint=eastwest;strokeColor=inherit;" vertex="1" parent="XADFCng0oNNhnRwHCBua-40">
          <mxGeometry y="52" width="160" height="8" as="geometry" />
        </mxCell>
        <mxCell id="XADFCng0oNNhnRwHCBua-43" value="+ method(type): type" style="text;strokeColor=none;fillColor=none;align=left;verticalAlign=top;spacingLeft=4;spacingRight=4;overflow=hidden;rotatable=0;points=[[0,0.5],[1,0.5]];portConstraint=eastwest;whiteSpace=wrap;html=1;" vertex="1" parent="XADFCng0oNNhnRwHCBua-40">
          <mxGeometry y="60" width="160" height="26" as="geometry" />
        </mxCell>
        <mxCell id="XADFCng0oNNhnRwHCBua-44" value="C" style="swimlane;fontStyle=1;align=center;verticalAlign=top;childLayout=stackLayout;horizontal=1;startSize=26;horizontalStack=0;resizeParent=1;resizeParentMax=0;resizeLast=0;collapsible=1;marginBottom=0;whiteSpace=wrap;html=1;" vertex="1" parent="WIyWlLk6GJQsqaUBKTNV-1">
          <mxGeometry x="1220" y="160" width="160" height="86" as="geometry" />
        </mxCell>
        <mxCell id="XADFCng0oNNhnRwHCBua-45" value="+ field: type" style="text;strokeColor=none;fillColor=none;align=left;verticalAlign=top;spacingLeft=4;spacingRight=4;overflow=hidden;rotatable=0;points=[[0,0.5],[1,0.5]];portConstraint=eastwest;whiteSpace=wrap;html=1;" vertex="1" parent="XADFCng0oNNhnRwHCBua-44">
          <mxGeometry y="26" width="160" height="26" as="geometry" />
        </mxCell>
        <mxCell id="XADFCng0oNNhnRwHCBua-46" value="" style="line;strokeWidth=1;fillColor=none;align=left;verticalAlign=middle;spacingTop=-1;spacingLeft=3;spacingRight=3;rotatable=0;labelPosition=right;points=[];portConstraint=eastwest;strokeColor=inherit;" vertex="1" parent="XADFCng0oNNhnRwHCBua-44">
          <mxGeometry y="52" width="160" height="8" as="geometry" />
        </mxCell>
        <mxCell id="XADFCng0oNNhnRwHCBua-47" value="+ method(type): type" style="text;strokeColor=none;fillColor=none;align=left;verticalAlign=top;spacingLeft=4;spacingRight=4;overflow=hidden;rotatable=0;points=[[0,0.5],[1,0.5]];portConstraint=eastwest;whiteSpace=wrap;html=1;" vertex="1" parent="XADFCng0oNNhnRwHCBua-44">
          <mxGeometry y="60" width="160" height="26" as="geometry" />
        </mxCell>
        <mxCell id="XADFCng0oNNhnRwHCBua-50" value="Extends" style="endArrow=block;endSize=16;endFill=0;html=1;rounded=0;entryX=0.581;entryY=1.154;entryDx=0;entryDy=0;entryPerimeter=0;" edge="1" parent="WIyWlLk6GJQsqaUBKTNV-1" target="XADFCng0oNNhnRwHCBua-39">
          <mxGeometry width="160" relative="1" as="geometry">
            <mxPoint x="1290" y="160" as="sourcePoint" />
            <mxPoint x="1450" y="160" as="targetPoint" />
          </mxGeometry>
        </mxCell>
        <mxCell id="XADFCng0oNNhnRwHCBua-51" value="Hieraric Inheritance" style="text;html=1;align=center;verticalAlign=middle;whiteSpace=wrap;rounded=0;" vertex="1" parent="WIyWlLk6GJQsqaUBKTNV-1">
          <mxGeometry x="1140" y="260" width="133" height="30" as="geometry" />
        </mxCell>
        <mxCell id="XADFCng0oNNhnRwHCBua-52" value="C" style="swimlane;fontStyle=1;align=center;verticalAlign=top;childLayout=stackLayout;horizontal=1;startSize=26;horizontalStack=0;resizeParent=1;resizeParentMax=0;resizeLast=0;collapsible=1;marginBottom=0;whiteSpace=wrap;html=1;" vertex="1" parent="WIyWlLk6GJQsqaUBKTNV-1">
          <mxGeometry x="1510" y="130" width="160" height="86" as="geometry" />
        </mxCell>
        <mxCell id="XADFCng0oNNhnRwHCBua-53" value="+ field: type" style="text;strokeColor=none;fillColor=none;align=left;verticalAlign=top;spacingLeft=4;spacingRight=4;overflow=hidden;rotatable=0;points=[[0,0.5],[1,0.5]];portConstraint=eastwest;whiteSpace=wrap;html=1;" vertex="1" parent="XADFCng0oNNhnRwHCBua-52">
          <mxGeometry y="26" width="160" height="26" as="geometry" />
        </mxCell>
        <mxCell id="XADFCng0oNNhnRwHCBua-54" value="" style="line;strokeWidth=1;fillColor=none;align=left;verticalAlign=middle;spacingTop=-1;spacingLeft=3;spacingRight=3;rotatable=0;labelPosition=right;points=[];portConstraint=eastwest;strokeColor=inherit;" vertex="1" parent="XADFCng0oNNhnRwHCBua-52">
          <mxGeometry y="52" width="160" height="8" as="geometry" />
        </mxCell>
        <mxCell id="XADFCng0oNNhnRwHCBua-55" value="+ method(type): type" style="text;strokeColor=none;fillColor=none;align=left;verticalAlign=top;spacingLeft=4;spacingRight=4;overflow=hidden;rotatable=0;points=[[0,0.5],[1,0.5]];portConstraint=eastwest;whiteSpace=wrap;html=1;" vertex="1" parent="XADFCng0oNNhnRwHCBua-52">
          <mxGeometry y="60" width="160" height="26" as="geometry" />
        </mxCell>
        <mxCell id="XADFCng0oNNhnRwHCBua-56" value="B" style="swimlane;fontStyle=1;align=center;verticalAlign=top;childLayout=stackLayout;horizontal=1;startSize=26;horizontalStack=0;resizeParent=1;resizeParentMax=0;resizeLast=0;collapsible=1;marginBottom=0;whiteSpace=wrap;html=1;" vertex="1" parent="WIyWlLk6GJQsqaUBKTNV-1">
          <mxGeometry x="1633" y="20" width="160" height="86" as="geometry" />
        </mxCell>
        <mxCell id="XADFCng0oNNhnRwHCBua-58" value="+ field: type" style="text;strokeColor=none;fillColor=none;align=left;verticalAlign=top;spacingLeft=4;spacingRight=4;overflow=hidden;rotatable=0;points=[[0,0.5],[1,0.5]];portConstraint=eastwest;whiteSpace=wrap;html=1;" vertex="1" parent="XADFCng0oNNhnRwHCBua-56">
          <mxGeometry y="26" width="160" height="26" as="geometry" />
        </mxCell>
        <mxCell id="XADFCng0oNNhnRwHCBua-59" value="" style="line;strokeWidth=1;fillColor=none;align=left;verticalAlign=middle;spacingTop=-1;spacingLeft=3;spacingRight=3;rotatable=0;labelPosition=right;points=[];portConstraint=eastwest;strokeColor=inherit;" vertex="1" parent="XADFCng0oNNhnRwHCBua-56">
          <mxGeometry y="52" width="160" height="8" as="geometry" />
        </mxCell>
        <mxCell id="XADFCng0oNNhnRwHCBua-60" value="+ method(type): type" style="text;strokeColor=none;fillColor=none;align=left;verticalAlign=top;spacingLeft=4;spacingRight=4;overflow=hidden;rotatable=0;points=[[0,0.5],[1,0.5]];portConstraint=eastwest;whiteSpace=wrap;html=1;" vertex="1" parent="XADFCng0oNNhnRwHCBua-56">
          <mxGeometry y="60" width="160" height="26" as="geometry" />
        </mxCell>
        <mxCell id="XADFCng0oNNhnRwHCBua-61" value="A" style="swimlane;fontStyle=1;align=center;verticalAlign=top;childLayout=stackLayout;horizontal=1;startSize=26;horizontalStack=0;resizeParent=1;resizeParentMax=0;resizeLast=0;collapsible=1;marginBottom=0;whiteSpace=wrap;html=1;" vertex="1" parent="WIyWlLk6GJQsqaUBKTNV-1">
          <mxGeometry x="1390" y="20" width="160" height="86" as="geometry" />
        </mxCell>
        <mxCell id="XADFCng0oNNhnRwHCBua-62" value="+ field: type" style="text;strokeColor=none;fillColor=none;align=left;verticalAlign=top;spacingLeft=4;spacingRight=4;overflow=hidden;rotatable=0;points=[[0,0.5],[1,0.5]];portConstraint=eastwest;whiteSpace=wrap;html=1;" vertex="1" parent="XADFCng0oNNhnRwHCBua-61">
          <mxGeometry y="26" width="160" height="26" as="geometry" />
        </mxCell>
        <mxCell id="XADFCng0oNNhnRwHCBua-63" value="" style="line;strokeWidth=1;fillColor=none;align=left;verticalAlign=middle;spacingTop=-1;spacingLeft=3;spacingRight=3;rotatable=0;labelPosition=right;points=[];portConstraint=eastwest;strokeColor=inherit;" vertex="1" parent="XADFCng0oNNhnRwHCBua-61">
          <mxGeometry y="52" width="160" height="8" as="geometry" />
        </mxCell>
        <mxCell id="XADFCng0oNNhnRwHCBua-64" value="+ method(type): type" style="text;strokeColor=none;fillColor=none;align=left;verticalAlign=top;spacingLeft=4;spacingRight=4;overflow=hidden;rotatable=0;points=[[0,0.5],[1,0.5]];portConstraint=eastwest;whiteSpace=wrap;html=1;" vertex="1" parent="XADFCng0oNNhnRwHCBua-61">
          <mxGeometry y="60" width="160" height="26" as="geometry" />
        </mxCell>
        <mxCell id="XADFCng0oNNhnRwHCBua-65" value="Extends" style="endArrow=block;endSize=16;endFill=0;html=1;rounded=0;entryX=0.444;entryY=1.115;entryDx=0;entryDy=0;entryPerimeter=0;exitX=0.5;exitY=0;exitDx=0;exitDy=0;" edge="1" parent="WIyWlLk6GJQsqaUBKTNV-1" source="XADFCng0oNNhnRwHCBua-52" target="XADFCng0oNNhnRwHCBua-64">
          <mxGeometry width="160" relative="1" as="geometry">
            <mxPoint x="1480" y="-140" as="sourcePoint" />
            <mxPoint x="1574" y="-180" as="targetPoint" />
            <Array as="points" />
          </mxGeometry>
        </mxCell>
        <mxCell id="XADFCng0oNNhnRwHCBua-66" value="Extends" style="endArrow=block;endSize=16;endFill=0;html=1;rounded=0;entryX=0.575;entryY=0.923;entryDx=0;entryDy=0;entryPerimeter=0;exitX=0.575;exitY=-0.012;exitDx=0;exitDy=0;exitPerimeter=0;" edge="1" parent="WIyWlLk6GJQsqaUBKTNV-1" source="XADFCng0oNNhnRwHCBua-52" target="XADFCng0oNNhnRwHCBua-60">
          <mxGeometry width="160" relative="1" as="geometry">
            <mxPoint x="1600" y="140" as="sourcePoint" />
            <mxPoint x="1471" y="119" as="targetPoint" />
            <Array as="points" />
          </mxGeometry>
        </mxCell>
        <mxCell id="XADFCng0oNNhnRwHCBua-67" value="Multi Inheritance" style="text;html=1;align=center;verticalAlign=middle;whiteSpace=wrap;rounded=0;" vertex="1" parent="WIyWlLk6GJQsqaUBKTNV-1">
          <mxGeometry x="1520" y="216" width="133" height="30" as="geometry" />
        </mxCell>
        <mxCell id="XADFCng0oNNhnRwHCBua-68" value="Yonetici" style="swimlane;fontStyle=1;align=center;verticalAlign=top;childLayout=stackLayout;horizontal=1;startSize=26;horizontalStack=0;resizeParent=1;resizeParentMax=0;resizeLast=0;collapsible=1;marginBottom=0;whiteSpace=wrap;html=1;fillColor=#dae8fc;strokeColor=#6c8ebf;" vertex="1" parent="WIyWlLk6GJQsqaUBKTNV-1">
          <mxGeometry x="380" y="466" width="160" height="86" as="geometry" />
        </mxCell>
        <mxCell id="XADFCng0oNNhnRwHCBua-69" value="+ field: type" style="text;strokeColor=#82b366;fillColor=#d5e8d4;align=left;verticalAlign=top;spacingLeft=4;spacingRight=4;overflow=hidden;rotatable=0;points=[[0,0.5],[1,0.5]];portConstraint=eastwest;whiteSpace=wrap;html=1;" vertex="1" parent="XADFCng0oNNhnRwHCBua-68">
          <mxGeometry y="26" width="160" height="26" as="geometry" />
        </mxCell>
        <mxCell id="XADFCng0oNNhnRwHCBua-70" value="" style="line;strokeWidth=1;fillColor=none;align=left;verticalAlign=middle;spacingTop=-1;spacingLeft=3;spacingRight=3;rotatable=0;labelPosition=right;points=[];portConstraint=eastwest;strokeColor=inherit;" vertex="1" parent="XADFCng0oNNhnRwHCBua-68">
          <mxGeometry y="52" width="160" height="8" as="geometry" />
        </mxCell>
        <mxCell id="XADFCng0oNNhnRwHCBua-71" value="info(): void" style="text;strokeColor=#d79b00;fillColor=#ffe6cc;align=left;verticalAlign=top;spacingLeft=4;spacingRight=4;overflow=hidden;rotatable=0;points=[[0,0.5],[1,0.5]];portConstraint=eastwest;whiteSpace=wrap;html=1;" vertex="1" parent="XADFCng0oNNhnRwHCBua-68">
          <mxGeometry y="60" width="160" height="26" as="geometry" />
        </mxCell>
        <mxCell id="XADFCng0oNNhnRwHCBua-72" value="Admin" style="swimlane;fontStyle=1;align=center;verticalAlign=top;childLayout=stackLayout;horizontal=1;startSize=26;horizontalStack=0;resizeParent=1;resizeParentMax=0;resizeLast=0;collapsible=1;marginBottom=0;whiteSpace=wrap;html=1;fillColor=#dae8fc;strokeColor=#6c8ebf;" vertex="1" parent="WIyWlLk6GJQsqaUBKTNV-1">
          <mxGeometry x="380" y="600" width="160" height="86" as="geometry" />
        </mxCell>
        <mxCell id="XADFCng0oNNhnRwHCBua-84" value="Extends" style="endArrow=block;endSize=16;endFill=0;html=1;rounded=0;entryX=0.5;entryY=1;entryDx=0;entryDy=0;entryPerimeter=0;" edge="1" parent="XADFCng0oNNhnRwHCBua-72" target="XADFCng0oNNhnRwHCBua-71">
          <mxGeometry width="160" relative="1" as="geometry">
            <mxPoint x="80" as="sourcePoint" />
            <mxPoint x="240" as="targetPoint" />
          </mxGeometry>
        </mxCell>
        <mxCell id="XADFCng0oNNhnRwHCBua-73" value="+ field: type" style="text;strokeColor=#82b366;fillColor=#d5e8d4;align=left;verticalAlign=top;spacingLeft=4;spacingRight=4;overflow=hidden;rotatable=0;points=[[0,0.5],[1,0.5]];portConstraint=eastwest;whiteSpace=wrap;html=1;" vertex="1" parent="XADFCng0oNNhnRwHCBua-72">
          <mxGeometry y="26" width="160" height="26" as="geometry" />
        </mxCell>
        <mxCell id="XADFCng0oNNhnRwHCBua-74" value="" style="line;strokeWidth=1;fillColor=none;align=left;verticalAlign=middle;spacingTop=-1;spacingLeft=3;spacingRight=3;rotatable=0;labelPosition=right;points=[];portConstraint=eastwest;strokeColor=inherit;" vertex="1" parent="XADFCng0oNNhnRwHCBua-72">
          <mxGeometry y="52" width="160" height="8" as="geometry" />
        </mxCell>
        <mxCell id="XADFCng0oNNhnRwHCBua-75" value="+ method(type): type" style="text;strokeColor=#d79b00;fillColor=#ffe6cc;align=left;verticalAlign=top;spacingLeft=4;spacingRight=4;overflow=hidden;rotatable=0;points=[[0,0.5],[1,0.5]];portConstraint=eastwest;whiteSpace=wrap;html=1;" vertex="1" parent="XADFCng0oNNhnRwHCBua-72">
          <mxGeometry y="60" width="160" height="26" as="geometry" />
        </mxCell>
        <mxCell id="XADFCng0oNNhnRwHCBua-76" value="SuperAdmin" style="swimlane;fontStyle=1;align=center;verticalAlign=top;childLayout=stackLayout;horizontal=1;startSize=26;horizontalStack=0;resizeParent=1;resizeParentMax=0;resizeLast=0;collapsible=1;marginBottom=0;whiteSpace=wrap;html=1;fillColor=#dae8fc;strokeColor=#6c8ebf;" vertex="1" parent="WIyWlLk6GJQsqaUBKTNV-1">
          <mxGeometry x="377" y="738" width="160" height="86" as="geometry" />
        </mxCell>
        <mxCell id="XADFCng0oNNhnRwHCBua-77" value="+ field: type" style="text;strokeColor=#82b366;fillColor=#d5e8d4;align=left;verticalAlign=top;spacingLeft=4;spacingRight=4;overflow=hidden;rotatable=0;points=[[0,0.5],[1,0.5]];portConstraint=eastwest;whiteSpace=wrap;html=1;" vertex="1" parent="XADFCng0oNNhnRwHCBua-76">
          <mxGeometry y="26" width="160" height="26" as="geometry" />
        </mxCell>
        <mxCell id="XADFCng0oNNhnRwHCBua-78" value="" style="line;strokeWidth=1;fillColor=none;align=left;verticalAlign=middle;spacingTop=-1;spacingLeft=3;spacingRight=3;rotatable=0;labelPosition=right;points=[];portConstraint=eastwest;strokeColor=inherit;" vertex="1" parent="XADFCng0oNNhnRwHCBua-76">
          <mxGeometry y="52" width="160" height="8" as="geometry" />
        </mxCell>
        <mxCell id="XADFCng0oNNhnRwHCBua-79" value="info(): void" style="text;strokeColor=#d79b00;fillColor=#ffe6cc;align=left;verticalAlign=top;spacingLeft=4;spacingRight=4;overflow=hidden;rotatable=0;points=[[0,0.5],[1,0.5]];portConstraint=eastwest;whiteSpace=wrap;html=1;" vertex="1" parent="XADFCng0oNNhnRwHCBua-76">
          <mxGeometry y="60" width="160" height="26" as="geometry" />
        </mxCell>
        <mxCell id="XADFCng0oNNhnRwHCBua-83" value="is a" style="text;html=1;align=center;verticalAlign=middle;whiteSpace=wrap;rounded=0;" vertex="1" parent="WIyWlLk6GJQsqaUBKTNV-1">
          <mxGeometry x="700" y="137" width="60" height="30" as="geometry" />
        </mxCell>
        <mxCell id="XADFCng0oNNhnRwHCBua-85" value="Extends" style="endArrow=block;endSize=16;endFill=0;html=1;rounded=0;entryX=0.488;entryY=1;entryDx=0;entryDy=0;entryPerimeter=0;exitX=0.5;exitY=0;exitDx=0;exitDy=0;" edge="1" parent="WIyWlLk6GJQsqaUBKTNV-1" source="XADFCng0oNNhnRwHCBua-76" target="XADFCng0oNNhnRwHCBua-75">
          <mxGeometry width="160" relative="1" as="geometry">
            <mxPoint x="450" y="720" as="sourcePoint" />
            <mxPoint x="610" y="720" as="targetPoint" />
          </mxGeometry>
        </mxCell>
        <mxCell id="XADFCng0oNNhnRwHCBua-86" value="Hayvan" style="swimlane;fontStyle=1;align=center;verticalAlign=top;childLayout=stackLayout;horizontal=1;startSize=26;horizontalStack=0;resizeParent=1;resizeParentMax=0;resizeLast=0;collapsible=1;marginBottom=0;whiteSpace=wrap;html=1;" vertex="1" parent="WIyWlLk6GJQsqaUBKTNV-1">
          <mxGeometry x="620" y="590" width="160" height="86" as="geometry" />
        </mxCell>
        <mxCell id="XADFCng0oNNhnRwHCBua-87" value="+ field: type" style="text;strokeColor=none;fillColor=none;align=left;verticalAlign=top;spacingLeft=4;spacingRight=4;overflow=hidden;rotatable=0;points=[[0,0.5],[1,0.5]];portConstraint=eastwest;whiteSpace=wrap;html=1;" vertex="1" parent="XADFCng0oNNhnRwHCBua-86">
          <mxGeometry y="26" width="160" height="26" as="geometry" />
        </mxCell>
        <mxCell id="XADFCng0oNNhnRwHCBua-88" value="" style="line;strokeWidth=1;fillColor=none;align=left;verticalAlign=middle;spacingTop=-1;spacingLeft=3;spacingRight=3;rotatable=0;labelPosition=right;points=[];portConstraint=eastwest;strokeColor=inherit;" vertex="1" parent="XADFCng0oNNhnRwHCBua-86">
          <mxGeometry y="52" width="160" height="8" as="geometry" />
        </mxCell>
        <mxCell id="XADFCng0oNNhnRwHCBua-89" value="+ method(type): type" style="text;strokeColor=none;fillColor=none;align=left;verticalAlign=top;spacingLeft=4;spacingRight=4;overflow=hidden;rotatable=0;points=[[0,0.5],[1,0.5]];portConstraint=eastwest;whiteSpace=wrap;html=1;" vertex="1" parent="XADFCng0oNNhnRwHCBua-86">
          <mxGeometry y="60" width="160" height="26" as="geometry" />
        </mxCell>
        <mxCell id="XADFCng0oNNhnRwHCBua-90" value="Kedi" style="swimlane;fontStyle=1;align=center;verticalAlign=top;childLayout=stackLayout;horizontal=1;startSize=26;horizontalStack=0;resizeParent=1;resizeParentMax=0;resizeLast=0;collapsible=1;marginBottom=0;whiteSpace=wrap;html=1;" vertex="1" parent="WIyWlLk6GJQsqaUBKTNV-1">
          <mxGeometry x="620" y="730" width="160" height="86" as="geometry" />
        </mxCell>
        <mxCell id="XADFCng0oNNhnRwHCBua-91" value="+ field: type" style="text;strokeColor=none;fillColor=none;align=left;verticalAlign=top;spacingLeft=4;spacingRight=4;overflow=hidden;rotatable=0;points=[[0,0.5],[1,0.5]];portConstraint=eastwest;whiteSpace=wrap;html=1;" vertex="1" parent="XADFCng0oNNhnRwHCBua-90">
          <mxGeometry y="26" width="160" height="26" as="geometry" />
        </mxCell>
        <mxCell id="XADFCng0oNNhnRwHCBua-92" value="" style="line;strokeWidth=1;fillColor=none;align=left;verticalAlign=middle;spacingTop=-1;spacingLeft=3;spacingRight=3;rotatable=0;labelPosition=right;points=[];portConstraint=eastwest;strokeColor=inherit;" vertex="1" parent="XADFCng0oNNhnRwHCBua-90">
          <mxGeometry y="52" width="160" height="8" as="geometry" />
        </mxCell>
        <mxCell id="XADFCng0oNNhnRwHCBua-93" value="+ method(type): type" style="text;strokeColor=none;fillColor=none;align=left;verticalAlign=top;spacingLeft=4;spacingRight=4;overflow=hidden;rotatable=0;points=[[0,0.5],[1,0.5]];portConstraint=eastwest;whiteSpace=wrap;html=1;" vertex="1" parent="XADFCng0oNNhnRwHCBua-90">
          <mxGeometry y="60" width="160" height="26" as="geometry" />
        </mxCell>
        <mxCell id="XADFCng0oNNhnRwHCBua-95" value="Extends" style="endArrow=block;endSize=16;endFill=0;html=1;rounded=0;entryX=0.5;entryY=0.923;entryDx=0;entryDy=0;entryPerimeter=0;exitX=0.5;exitY=0;exitDx=0;exitDy=0;" edge="1" parent="WIyWlLk6GJQsqaUBKTNV-1" source="XADFCng0oNNhnRwHCBua-90" target="XADFCng0oNNhnRwHCBua-89">
          <mxGeometry width="160" relative="1" as="geometry">
            <mxPoint x="620" y="580" as="sourcePoint" />
            <mxPoint x="780" y="580" as="targetPoint" />
          </mxGeometry>
        </mxCell>
        <mxCell id="XADFCng0oNNhnRwHCBua-96" value="is a" style="text;html=1;align=center;verticalAlign=middle;whiteSpace=wrap;rounded=0;" vertex="1" parent="WIyWlLk6GJQsqaUBKTNV-1">
          <mxGeometry x="720" y="690" width="60" height="30" as="geometry" />
        </mxCell>
        <mxCell id="XADFCng0oNNhnRwHCBua-97" value="is a" style="text;html=1;align=center;verticalAlign=middle;whiteSpace=wrap;rounded=0;" vertex="1" parent="WIyWlLk6GJQsqaUBKTNV-1">
          <mxGeometry x="490" y="570" width="60" height="30" as="geometry" />
        </mxCell>
        <mxCell id="XADFCng0oNNhnRwHCBua-98" value="is a" style="text;html=1;align=center;verticalAlign=middle;whiteSpace=wrap;rounded=0;" vertex="1" parent="WIyWlLk6GJQsqaUBKTNV-1">
          <mxGeometry x="477" y="708" width="60" height="30" as="geometry" />
        </mxCell>
      </root>
    </mxGraphModel>
  </diagram>
</mxfile>
